<svg enable-background="new 0 0 200 200" height="200" viewBox="0 0 200 200" width="200" xmlns="http://www.w3.org/2000/svg"><path d="m107.693 44.852s-1.611.646-4.838 1.905c-4.918 1.961-8.567 4.959-10.936 9.023-2.459 4.254-3.688 9.129-3.688 14.647v14.754h-16.92v.128 19.464.127h16.92v50.248h.12 20.104.132v-50.248h16.913c.085-.598.938-7.132 2.533-19.591 0-.084-.032-.128-.11-.128h-19.336v-10.947c0-3.05.115-4.955.373-5.712 0-.264.256-.903.766-1.898.758-1.284 1.987-2.22 3.693-2.807 1.1-.423 3.178-.639 6.234-.639h9.033v-.118-17.316-.132c-4.67-.503-9.58-.761-14.758-.761h-.511z"/><path d="m99.995 189.202c-49.178 0-89.187-40.013-89.187-89.195 0-49.19 40.009-89.209 89.187-89.209 49.183 0 89.196 40.019 89.196 89.209 0 49.182-40.013 89.195-89.196 89.195zm0-170.404c-44.767 0-81.187 36.431-81.187 81.209 0 44.771 36.42 81.195 81.187 81.195 44.772 0 81.196-36.425 81.196-81.195 0-44.778-36.423-81.209-81.196-81.209z"/></svg>