<?xml version="1.0" encoding="utf-8"?>
<!-- Generator: Adobe Illustrator 16.0.0, SVG Export Plug-In . SVG Version: 6.00 Build 0)  -->
<!DOCTYPE svg PUBLIC "-//W3C//DTD SVG 1.1//EN" "http://www.w3.org/Graphics/SVG/1.1/DTD/svg11.dtd">
<svg version="1.1" id="EXPAND" xmlns="http://www.w3.org/2000/svg" xmlns:xlink="http://www.w3.org/1999/xlink" x="0px" y="0px"
	 width="200px" height="200px" viewBox="0 0 200 200" style="enable-background:new 0 0 200 200;" xml:space="preserve">
  	 <title>Facebook</title>
<path d="M107.693,44.852c0,0-1.611,0.646-4.838,1.905c-4.918,1.961-8.567,4.959-10.936,9.023c-2.459,4.254-3.688,9.129-3.688,14.647
	v14.754h-16.92v0.128v19.464v0.127h16.92v50.248h0.12h20.104h0.132V104.9h16.913c0.085-0.598,0.938-7.132,2.533-19.591
	c0-0.084-0.032-0.128-0.11-0.128h-19.336V74.234c0-3.05,0.115-4.955,0.373-5.712c0-0.264,0.256-0.903,0.766-1.898
	c0.758-1.284,1.987-2.22,3.693-2.807c1.1-0.423,3.178-0.639,6.234-0.639h9.033V63.06V45.744v-0.132
	c-4.67-0.503-9.58-0.761-14.758-0.761h-0.511L107.693,44.852L107.693,44.852z"/>
<g>
	<path d="M99.995,189.202c-49.178,0-89.187-40.013-89.187-89.195c0-49.19,40.009-89.209,89.187-89.209
		c49.183,0,89.196,40.019,89.196,89.209C189.191,149.189,149.178,189.202,99.995,189.202z M99.995,18.798
		c-44.767,0-81.187,36.431-81.187,81.209c0,44.771,36.42,81.195,81.187,81.195c44.772,0,81.196-36.425,81.196-81.195
		C181.191,55.229,144.768,18.798,99.995,18.798z"/>
</g>
</svg>
