<svg enable-background="new 0 0 200 200" height="200" viewBox="0 0 200 200" width="200" xmlns="http://www.w3.org/2000/svg"><path d="m100.02 189.202c-49.195 0-89.219-40.013-89.219-89.195 0-49.19 40.023-89.209 89.219-89.209 49.173 0 89.18 40.019 89.18 89.209-.001 49.182-40.007 89.195-89.18 89.195zm0-170.404c-44.784 0-81.219 36.431-81.219 81.209 0 44.771 36.435 81.195 81.219 81.195 44.763 0 81.18-36.425 81.18-81.195-.001-44.778-36.418-81.209-81.18-81.209z"/><path d="m140.447 100.22c-.064 0-.133 0-.205-.015 0-3.876.088-7.752-.016-11.622-.098-3.73-.244-7.466-.619-11.17-.842-8.307-5.787-14.042-13.963-15.598-4.31-.807-8.771-.936-13.168-1.013-8.322-.147-16.655-.14-24.988-.015-4.144.062-8.332.228-12.432.859-7.106 1.127-11.964 5.176-13.925 12.22-.624 2.258-.995 4.655-1.048 6.989-.221 8.907-.346 17.819-.321 26.713.026 5.646.146 11.332.65 16.964.739 8.454 5.875 14.229 14.2 15.726 4.271.771 8.698.885 13.071.955 8.215.137 16.429.104 24.666.012 3.748-.052 7.522-.254 11.262-.621 3.5-.354 6.787-1.49 9.595-3.715 4.567-3.638 6.333-8.646 6.603-14.203.365-7.473.433-14.978.638-22.466m-40.369-48.456c6.605.106 13.212.177 19.809.359 5.734.162 11.287 1.179 16.26 4.218 6.527 3.994 10.525 9.857 11.812 17.323.766 4.464 1.023 9.038 1.107 13.586.146 9.758.088 19.534-.021 29.287-.063 5.121-.233 10.26-1.931 15.193-3.291 9.545-9.995 15.363-19.829 17.225-4.437.85-9.05 1.042-13.583 1.109-9.73.153-19.458.086-29.19-.008-5.119-.061-10.258-.231-15.197-1.916-9.566-3.271-15.37-9.976-17.269-19.809-.854-4.432-1.044-9.035-1.112-13.579-.151-9.75-.09-19.53.015-29.291.054-5.114.225-10.253 1.926-15.198 3.3-9.541 10-15.351 19.829-17.216 4.446-.833 9.054-.937 13.603-1.117 4.573-.179 9.18-.043 13.769-.043z"/><path d="m99.99 117.372c8.971.014 16.382-7.372 16.382-16.354.015-8.979-7.392-16.383-16.367-16.383-8.99 0-16.367 7.368-16.377 16.357-.01 8.979 7.372 16.372 16.362 16.38m25.24-16.351c0 14.012-11.233 25.219-25.254 25.219-14.091-.008-25.216-11.24-25.206-25.48 0-13.858 11.355-25.006 25.469-24.984 13.797 0 24.991 11.325 24.991 25.245"/><path d="m132.129 74.748c0 3.305-2.652 5.984-5.904 5.974-3.271-.03-5.961-2.739-5.942-5.98.038-3.238 2.657-5.852 5.895-5.859 3.358-.016 5.937 2.524 5.951 5.865"/></svg>