<?xml version="1.0" encoding="utf-8"?>
<!-- Generator: Adobe Illustrator 16.0.0, SVG Export Plug-In . SVG Version: 6.00 Build 0)  -->
<!DOCTYPE svg PUBLIC "-//W3C//DTD SVG 1.1//EN" "http://www.w3.org/Graphics/SVG/1.1/DTD/svg11.dtd">
<svg version="1.1" id="EXPAND" xmlns="http://www.w3.org/2000/svg" xmlns:xlink="http://www.w3.org/1999/xlink" x="0px" y="0px"
	 width="200px" height="200px" viewBox="0 0 200 200" style="enable-background:new 0 0 200 200;" xml:space="preserve">
  	 <title>Instagram</title>
<g>
	<g>
		<path d="M100.02,189.202c-49.195,0-89.219-40.013-89.219-89.195c0-49.19,40.023-89.209,89.219-89.209
			c49.173,0,89.18,40.019,89.18,89.209C189.199,149.189,149.193,189.202,100.02,189.202z M100.02,18.798
			c-44.784,0-81.219,36.431-81.219,81.209c0,44.771,36.435,81.195,81.219,81.195c44.763,0,81.18-36.425,81.18-81.195
			C181.199,55.229,144.782,18.798,100.02,18.798z"/>
	</g>
	<path d="M140.447,100.22c-0.064,0-0.133,0-0.205-0.015c0-3.876,0.088-7.752-0.016-11.622c-0.098-3.73-0.244-7.466-0.619-11.17
		c-0.842-8.307-5.787-14.042-13.963-15.598c-4.31-0.807-8.771-0.936-13.168-1.013c-8.322-0.147-16.655-0.14-24.988-0.015
		c-4.144,0.062-8.332,0.228-12.432,0.859c-7.106,1.127-11.964,5.176-13.925,12.22c-0.624,2.258-0.995,4.655-1.048,6.989
		c-0.221,8.907-0.346,17.819-0.321,26.713c0.026,5.646,0.146,11.332,0.65,16.964c0.739,8.454,5.875,14.229,14.2,15.726
		c4.271,0.771,8.698,0.885,13.071,0.955c8.215,0.137,16.429,0.104,24.666,0.012c3.748-0.052,7.522-0.254,11.262-0.621
		c3.5-0.354,6.787-1.49,9.595-3.715c4.567-3.638,6.333-8.646,6.603-14.203C140.174,115.213,140.242,107.708,140.447,100.22
		 M100.078,51.764c6.605,0.106,13.212,0.177,19.809,0.359c5.734,0.162,11.287,1.179,16.26,4.218
		c6.527,3.994,10.525,9.857,11.812,17.323c0.766,4.464,1.023,9.038,1.107,13.586c0.146,9.758,0.088,19.534-0.021,29.287
		c-0.063,5.121-0.233,10.26-1.931,15.193c-3.291,9.545-9.995,15.363-19.829,17.225c-4.437,0.85-9.05,1.042-13.583,1.109
		c-9.73,0.153-19.458,0.086-29.19-0.008c-5.119-0.061-10.258-0.231-15.197-1.916c-9.566-3.271-15.37-9.976-17.269-19.809
		c-0.854-4.432-1.044-9.035-1.112-13.579c-0.151-9.75-0.09-19.53,0.015-29.291c0.054-5.114,0.225-10.253,1.926-15.198
		c3.3-9.541,10-15.351,19.829-17.216c4.446-0.833,9.054-0.937,13.603-1.117c4.573-0.179,9.18-0.043,13.769-0.043L100.078,51.764
		L100.078,51.764z"/>
	<path d="M99.99,117.372c8.971,0.014,16.382-7.372,16.382-16.354c0.015-8.979-7.392-16.383-16.367-16.383
		c-8.99,0-16.367,7.368-16.377,16.357C83.618,109.971,91,117.364,99.99,117.372 M125.23,101.021
		c0,14.012-11.233,25.219-25.254,25.219C85.885,126.232,74.76,115,74.77,100.76c0-13.858,11.355-25.006,25.469-24.984
		C114.036,75.776,125.23,87.101,125.23,101.021"/>
	<path d="M132.129,74.748c0,3.305-2.652,5.984-5.904,5.974c-3.271-0.03-5.961-2.739-5.942-5.98c0.038-3.238,2.657-5.852,5.895-5.859
		C129.536,68.867,132.115,71.407,132.129,74.748"/>
</g>
</svg>
