<svg enable-background="new 0 0 200 200" height="200" viewBox="0 0 200 200" width="200" xmlns="http://www.w3.org/2000/svg"><path d="m64 156.417v-112.831l97.713 56.414zm8-98.975v85.119l73.713-42.561z"/><path d="m99.654 197.54c-53.782 0-97.538-43.755-97.538-97.54 0-53.782 43.755-97.538 97.538-97.538 53.784 0 97.538 43.756 97.538 97.538-.001 53.784-43.756 97.54-97.538 97.54zm0-187.078c-49.371 0-89.538 40.167-89.538 89.538 0 49.372 40.167 89.54 89.538 89.54 49.372 0 89.538-40.167 89.538-89.54-.001-49.371-40.167-89.538-89.538-89.538z"/></svg>