<?xml version="1.0" encoding="utf-8"?>
<!-- Generator: Adobe Illustrator 16.0.0, SVG Export Plug-In . SVG Version: 6.00 Build 0)  -->
<!DOCTYPE svg PUBLIC "-//W3C//DTD SVG 1.1//EN" "http://www.w3.org/Graphics/SVG/1.1/DTD/svg11.dtd">
<svg version="1.1" id="EXPAND" xmlns="http://www.w3.org/2000/svg" xmlns:xlink="http://www.w3.org/1999/xlink" x="0px" y="0px"
	 width="200px" height="200px" viewBox="0 0 200 200" style="enable-background:new 0 0 200 200;" xml:space="preserve">
  	 <title>YouTube</title>
<g>
	<g>
		<path d="M64,156.417V43.586L161.713,100L64,156.417z M72,57.442v85.119L145.713,100L72,57.442z"/>
	</g>
	<g>
		<path d="M99.654,197.54c-53.782,0-97.538-43.755-97.538-97.54c0-53.782,43.755-97.538,97.538-97.538
			c53.784,0,97.538,43.756,97.538,97.538C197.191,153.784,153.436,197.54,99.654,197.54z M99.654,10.462
			c-49.371,0-89.538,40.167-89.538,89.538c0,49.372,40.167,89.54,89.538,89.54c49.372,0,89.538-40.167,89.538-89.54
			C189.191,50.629,149.025,10.462,99.654,10.462z"/>
	</g>
</g>
</svg>
